<svg id="Layer_1" data-name="Layer 1" xmlns="http://www.w3.org/2000/svg" viewBox="0 0 1762.55 650.36"><defs><style>.cls-1{fill:#6041b1;}</style></defs><path d="M901.74,677.5q-42.66,0-69.16-26.87t-26.51-71.56v-5.54q0-29.92,11.55-53.47T850,483.4a85.68,85.68,0,0,1,46.54-13.11q40.8,0,63.06,26T981.89,570v18.1H851.32q2,24.74,16.53,39.15t36.47,14.4q30.84,0,50.23-24.93l24.2,23.08a80.87,80.87,0,0,1-32,27.8Q926.67,677.51,901.74,677.5Zm-5.36-171.2q-18.46,0-29.82,12.93t-14.5,36h85.5v-3.32q-1.47-22.53-12-34.07T896.38,506.3Z" transform="translate(-78.45 -215.2)"/><path d="M1058.34,474l1.29,23.08q22.17-26.77,58.18-26.78,62.42,0,63.53,71.47v132h-44.88V544.35q0-19-8.22-28.17T1101.37,507q-27.15,0-40.44,24.56V673.81h-44.88V474Z" transform="translate(-78.45 -215.2)"/><path d="M1283.28,425.42V474h35.27v33.24h-35.27V618.77q0,11.46,4.52,16.53t16.16,5.08a69.27,69.27,0,0,0,15.7-1.85v34.72a110.62,110.62,0,0,1-29.55,4.25q-51.7,0-51.71-57.07V507.23h-32.87V474h32.87V425.42Z" transform="translate(-78.45 -215.2)"/><path d="M1457.43,515a111.68,111.68,0,0,0-18.29-1.47q-30.84,0-41.55,23.63V673.81h-44.87V474h42.84l1.11,22.34q16.24-26,45.06-26,9.6,0,15.88,2.59Z" transform="translate(-78.45 -215.2)"/><path d="M1485.87,422.09q0-10.33,6.55-17.17t18.75-6.84q12.18,0,18.84,6.84t6.64,17.17A23.09,23.09,0,0,1,1530,439q-6.66,6.74-18.84,6.74T1492.42,439A23.26,23.26,0,0,1,1485.87,422.09Zm47.64,251.72h-44.87V474h44.87Z" transform="translate(-78.45 -215.2)"/><path d="M1741.64,559.86H1633.42V673.81H1586.7V404.92h170.83v37.67H1633.42v80h108.22Z" transform="translate(-78.45 -215.2)"/><path d="M1790.21,422.09q0-10.33,6.56-17.17t18.74-6.84q12.2,0,18.84,6.84a23.63,23.63,0,0,1,6.65,17.17,23.1,23.1,0,0,1-6.65,16.9q-6.64,6.74-18.84,6.74T1796.77,439A23.27,23.27,0,0,1,1790.21,422.09Zm47.65,251.72H1793V474h44.88Z" transform="translate(-78.45 -215.2)"/><path class="cls-1" d="M592,342.78a63.81,63.81,0,1,1,8.14-.52A65.91,65.91,0,0,1,592,342.78Zm.14-107a43.19,43.19,0,1,0,42.74,37.71,43.2,43.2,0,0,0-42.74-37.71Z" transform="translate(-78.45 -215.2)"/><path class="cls-1" d="M142.2,601.57a63.78,63.78,0,1,1,63.3-71.87h0a63.81,63.81,0,0,1-63.3,71.87Zm.07-107A43.21,43.21,0,0,0,99.4,543.27a43.18,43.18,0,1,0,42.87-48.67Z" transform="translate(-78.45 -215.2)"/><path class="cls-1" d="M582.24,865.57a63.81,63.81,0,1,1,8.13-.52A63.89,63.89,0,0,1,582.24,865.57Zm.13-107a43.5,43.5,0,0,0-5.57.35,43.16,43.16,0,1,0,5.57-.35Z" transform="translate(-78.45 -215.2)"/><path d="M577.31,604.06q-5.46,57.71-42.59,90t-98.8,32.32q-43.1,0-75.9-20.43t-50.64-58.07q-17.82-37.64-18.57-87.41V526.81q0-51,18.08-89.89T360.76,377q33.81-21,78.13-21.05,59.67,0,96.07,32.31t42.35,91.5h-62.4q-4.47-38.88-22.66-56.09t-53.36-17.21q-40.86,0-62.77,29.87t-22.41,87.61v32q0,58.5,20.92,89.23t61.29,30.73q36.88,0,55.46-16.59t23.53-55.22Z" transform="translate(-78.45 -215.2)"/><path class="cls-1" d="M438.38,263.56a196.45,196.45,0,0,0-84.87,10.85c-9.46,3.39-20.45-.29-24.9-9.3h0c-4.44-9,1-20.7,12.55-24.88a232.76,232.76,0,0,1,100.57-12.86c12.24,1.13,20.44,11.11,18.4,20.92h0C458.09,258.13,448.38,264.46,438.38,263.56Z" transform="translate(-78.45 -215.2)"/><path class="cls-1" d="M258.8,329.76a196.42,196.42,0,0,0-58,62.87c-5.06,8.67-15.85,12.92-25,8.87h0c-9.18-4-12.56-16.48-6.38-27.11a232.74,232.74,0,0,1,68.77-74.51c10.11-7,22.8-4.63,27.55,4.2h0C270.41,312.93,267,324,258.8,329.76Z" transform="translate(-78.45 -215.2)"/><path class="cls-1" d="M197.8,684.26a196.27,196.27,0,0,0,51.83,68.06c7.67,6.5,10,17.86,4.39,26.22h0c-5.55,8.34-18.41,9.5-27.81,1.57a232.67,232.67,0,0,1-61.43-80.66c-5.15-11.17-.6-23.26,8.92-26.4h0C183.24,669.89,193.58,675.14,197.8,684.26Z" transform="translate(-78.45 -215.2)"/><path class="cls-1" d="M344.92,806.67a196.37,196.37,0,0,0,83.46,18.83c10.05,0,19.12,7.27,20.22,17.26h0c1.1,10-8,19.12-20.3,19.08a232.6,232.6,0,0,1-98.91-22.31c-11.12-5.24-15.41-17.43-10.13-25.95h0C324.54,805,335.83,802.41,344.92,806.67Z" transform="translate(-78.45 -215.2)"/><path class="cls-1" d="M682.42,682.25a196.26,196.26,0,0,0,33-78.92c1.8-9.89,10.48-17.56,20.51-16.91h0c10,.64,17.44,11.2,15.27,23.3a232.71,232.71,0,0,1-39.14,93.53c-7.1,10-19.85,12.15-27.32,5.48h0C677.26,702,676.64,690.47,682.42,682.25Z" transform="translate(-78.45 -215.2)"/><path class="cls-1" d="M714.88,493.63a196.33,196.33,0,0,0-25.43-81.69c-5-8.73-3.26-20.19,4.84-26.14h0c8.07-5.93,20.56-2.63,26.68,8a232.86,232.86,0,0,1,30.13,96.81c1,12.25-7.39,22.06-17.41,21.75h0C723.65,512.11,715.73,503.64,714.88,493.63Z" transform="translate(-78.45 -215.2)"/></svg>