<svg id="Layer_1" data-name="Layer 1" xmlns="http://www.w3.org/2000/svg" viewBox="0 0 1642.87 1587.23"><defs><style>.cls-1{fill:#6041b1;}</style></defs><path class="cls-1" d="M1394.15,517.12A155.67,155.67,0,0,1,1374.71,207c85.17-10.89,163.26,49.51,174.15,134.65a155.67,155.67,0,0,1-134.64,174.15A159.8,159.8,0,0,1,1394.15,517.12Zm.39-261.08A105.39,105.39,0,0,0,1330,444.81a105.4,105.4,0,0,0,169-96.74A105.57,105.57,0,0,0,1394.54,256Z" transform="translate(-141.05 -205.77)"/><path class="cls-1" d="M296.63,1148.71c-77.11,0-144.26-57.45-154.3-135.91A155.67,155.67,0,0,1,277,838.65c85.21-10.84,163.26,49.51,174.15,134.65h0c10.89,85.13-49.51,163.26-134.65,174.15A156.89,156.89,0,0,1,296.63,1148.71Zm.17-261.06a105.45,105.45,0,0,0-104.61,118.77c7.37,57.65,60.35,98.47,117.92,91.18A105.4,105.4,0,0,0,296.8,887.65Z" transform="translate(-141.05 -205.77)"/><path class="cls-1" d="M1370.56,1793c-77.11,0-144.26-57.45-154.3-135.91a155.66,155.66,0,1,1,308.8-39.5h0c10.89,85.13-49.52,163.26-134.65,174.14A155.2,155.2,0,0,1,1370.56,1793Zm.32-261.07a107.22,107.22,0,0,0-13.58.87,105.39,105.39,0,0,0-91.18,117.91c7.38,57.65,60.4,98.43,117.91,91.17A105.54,105.54,0,0,0,1475.21,1624h0a105.43,105.43,0,0,0-104.33-92Z" transform="translate(-141.05 -205.77)"/><path d="M1358.53,1154.79q-13.3,140.81-104,219.67t-241.12,78.86q-105.15,0-185.22-49.86T704.65,1261.75q-43.5-91.86-45.32-213.32V966.24q0-124.49,44.11-219.37T830.05,600.62q82.49-51.36,190.66-51.36,145.65,0,234.48,78.86t103.34,223.3H1206.24q-10.87-94.87-55.3-136.88t-130.23-42q-99.71,0-153.19,72.89T812.83,959.26v78q0,142.74,51.06,217.76t149.57,75q90,0,135.37-40.49t57.41-134.76Z" transform="translate(-141.05 -205.77)"/><path class="cls-1" d="M1019.46,323.78a479.13,479.13,0,0,0-207.11,26.49c-23.09,8.27-49.91-.72-60.77-22.71h0C740.74,305.64,754,277,782.19,266.85a568,568,0,0,1,245.46-31.4c29.88,2.75,49.89,27.11,44.91,51.05h0C1067.58,310.52,1043.89,326,1019.46,323.78Z" transform="translate(-141.05 -205.77)"/><path class="cls-1" d="M581.19,485.35A479.25,479.25,0,0,0,439.56,638.77c-12.37,21.18-38.69,31.53-61.14,21.67h0c-22.4-9.83-30.66-40.24-15.58-66.19A568.06,568.06,0,0,1,530.69,412.43c24.66-17.11,55.65-11.3,67.22,10.24h0C609.54,444.27,601.32,471.33,581.19,485.35Z" transform="translate(-141.05 -205.77)"/><path class="cls-1" d="M432.33,1350.5a479.18,479.18,0,0,0,126.5,166.12c18.7,15.86,24.33,43.58,10.72,64h0c-13.57,20.35-44.95,23.2-67.89,3.85a568,568,0,0,1-149.91-196.88c-12.57-27.25-1.47-56.76,21.75-64.41h0C396.79,1315.45,422,1328.25,432.33,1350.5Z" transform="translate(-141.05 -205.77)"/><path class="cls-1" d="M791.39,1649.27a479.09,479.09,0,0,0,203.68,45.94c24.53.13,46.66,17.74,49.34,42.12h0c2.69,24.31-19.52,46.67-49.53,46.58a567.87,567.87,0,0,1-241.39-54.45c-27.14-12.8-37.61-42.54-24.74-63.33h0C741.64,1645.26,769.19,1638.85,791.39,1649.27Z" transform="translate(-141.05 -205.77)"/><path class="cls-1" d="M1615.07,1345.61A479.13,479.13,0,0,0,1695.68,1153c4.38-24.13,25.58-42.86,50-41.27h0c24.4,1.57,42.57,27.32,37.27,56.87a567.87,567.87,0,0,1-95.54,228.26c-17.32,24.51-48.42,29.65-66.66,13.37h0C1602.48,1393.91,1601,1365.67,1615.07,1345.61Z" transform="translate(-141.05 -205.77)"/><path class="cls-1" d="M1694.28,885.27a479.26,479.26,0,0,0-62.06-199.37c-12.15-21.29-8-49.27,11.81-63.78h0c19.71-14.48,50.17-6.43,65.11,19.6A568,568,0,0,1,1782.68,878c2.48,29.9-18,53.84-42.48,53.09h0C1715.68,930.36,1696.35,909.71,1694.28,885.27Z" transform="translate(-141.05 -205.77)"/></svg>